# xmcd
# 
# Track frame offsets:
#     150
#     17739
#     48543
#     63562
#     73345
#     85940
#     109715
#     124730
#     140095
#     155813
#     178393
# 
# Disc length: 3044
# 
# Revision: 7
# Processed by: cddbd v1.5.2PL0 Copyright (c) Steve Scherf et al.
# Submitted via: BonkEnc v1.0.8
# 
DISCID=aa0be20b
DTITLE=Amy Winehouse - Frank
DYEAR=2003
DGENRE=Jazz
TTITLE0=Intro+Stronger Than Me
TTITLE1=You Sent Me Flying+Cherry
TTITLE2=Fuck Me Pumps
TTITLE3=I Heard Love Is Blind
TTITLE4=(There Is) No Greater Love
TTITLE5=In My Bed
TTITLE6=Take The Box
TTITLE7=October Song
TTITLE8=What Is It About Men?
TTITLE9=Help Yourself
TTITLE10=Amy Amy Amy+Outro+2 bonus Tracks
EXTD=YEAR: 2003
EXTT0=
EXTT1=
EXTT2=
EXTT3=
EXTT4=
EXTT5=
EXTT6=
EXTT7=
EXTT8=
EXTT9=
EXTT10=
PLAYORDER=
